<svg id="Isolation_Mode" xmlns="http://www.w3.org/2000/svg" viewBox="0 0 287 73.1"><style>.st0{fill-rule:evenodd;clip-rule:evenodd;fill:#b8b8ae}</style><path class="st0" d="M43.4 61.5c1.1 3.4.1 3.8-.6 6.5-.5 1.6.1 4.2-2 4.9 3.5.7 12.5-2.9 2.6-11.4zm.3 10c1.1-.8 2.4-3.6 1.5-6.2 1.9 3.1.6 5.6-1.5 6.2zM15.4 46.1c-.8-2.5-2.7-3.2-5.4-4-3.6-1-7.5-2.6-8.9-6.8-.1 8 5.5 17.5 16 14.5-.7-.9-1.2-2.1-1.7-3.7zM10 47.3c-1.8-1.1-4.3-3.3-5.3-5 1.7 2.3 4.2 3.3 5.7 4 1 .5 2.1 1 3.4 2-1.4.1-2.6-.2-3.8-1zm1.1-43.9l-.1.1C12.9 2 15 .8 17.2.3c2.8-.6 5.5-.4 7.9.3 2.6.8 4.9 2.3 6.5 4.1.2.3.4.5.6.8 1.4 1.9 2.2 4.1 2.1 6.4-.9 0-1.7-.2-2.6-.5-.1-1.6-.7-3.2-1.7-4.6-.2-.2-.3-.4-.5-.6-1.3-1.5-3.2-2.7-5.4-3.3-2-.6-4.3-.8-6.5-.3-3 .7-5.8 2.8-7.9 5.5-3.7 4.7-5 11.2-3 16.8.6 1.8 1.6 3.5 2.8 5.1l-.6.3c-.3.4-.9.6-1.5.7-1.3-1.7-2.2-3.5-2.9-5.4-.6-1.8-1-3.6-1.1-5.5-.1 1.2-.1 2.4 0 3.6.3 2.9 1.1 5.3 2.3 7.4-1.5-.1-2.8-.8-3.8-1.9C1.4 27.7 1 25.9.8 24 .2 18.1 2 12.6 5.7 8.4c.5-.5.9-1 1.4-1.5-4.7 2.9-7.6-.4-7-3.1C.4 2 2.9.5 6.3 1.3 3.9 4 7.4 5 11.1 3.4z"/><path class="st0" d="M4.9 33.2c5.3 2.9 14.4-11.1 26.4-6.2 5.8 2.3 9.1 5.2 8.6 11.6-2.4-5.4-9.9-1.5-14.8.4C13.5 43.6.8 42.8.9 28.9c3.9 16.6 26 1.9 33.7 4.8-8.5-10.2-24.1 6.7-29.7-.5zM118.7 28c-.2 0-.5-.1-.7-.2-.7-.4-1-1.1-1-1.8.1-1.2 1.6-1.7 2.8-1.4 1.3.3 2 1.8 1.8 3-.2 1.1-1 2-2 2.5-.6.3-1.3.4-2 .4s-1.4-.2-2.1-.5c-4-2.1-4.4-10.4-4.3-15.4.2-2.5-.5-4.9-1.9-6.8-.2-.3-.4-.5-.6-.8 1.8 1.6 3.4 3.5 5 5.7 4 5.4 9.9 10 17.4 9 2.1-.3 4-1 5.7-2.1 2.4-1.6 3.9-3.9 4.6-6.5.6-2.5.5-5.4-1-7.7-1.3-2.1-3.3-3.7-5.8-4.5-2.4-.8-5-.6-7.4.3-2.2.8-4 2.5-4.5 4.8-.6 2.6.5 5.2 3.3 6.4.4.2.8.3 1.2.4.5.1.9.3 1.4.4 1.1.3 4.5 1.4 4.2 2.9 2.6-1.2 2-4.2 0-5.6-.8-.6-1.8-.8-2.8-1-2.7-.5-5.7-.1-5-3.1.3-1.5 1.9-2.6 3.4-3.2 1.7-.7 3.6-.8 5.4-.2 1.9.6 3.4 1.9 4.4 3.5 1.1 1.8 1.2 4.1.7 6.1-.5 2.1-1.8 4-3.7 5.2-1.3.9-2.8 1.4-4.4 1.7-6.4.8-11.5-3.5-14.8-8-4.4-6-8.1-9.9-16.4-10.6-1.3-.1-2.7-.1-4 0h-.3c-5 0-10.3 1.7-14.4 5-5.6 4.5-8.5 9.9-9.3 15.6.9-.1 1.7-.2 2.6-.3.8-4.8 3.3-9.3 8-13.2C89.8 1.7 102 1.7 107 9c1.4 2 1.9 4.6 1.1 7.4-1.2 4.2-4.7 7.4-9.6 7.3-3.9 0-6.7-2.3-7.7-5.2-1.2-3.5 2.5-7.1 6.4-5.7 2 .7 2.7 4.3.1 5.1 3.9.3 5.2-2 5.5-3.1.7-2.4-1.1-5.9-4.9-6.6-7.3-1.4-11.6 5.3-9.8 10.9 1.2 3.9 5 7 10.3 7.1 5.8 0 10.2-3.5 11.9-8.3-.9 5.2-.7 11.3 3.9 13.8 1 .5 2.1.8 3.2.8s2.1-.2 3.1-.7c1.7-.8 2.9-2.3 3.2-4 .4-2.5-1.3-5.4-4-6.1-2.9-.8-5.6.9-5.3 3.8.4 1.7 2.6 3.3 4.3 2.5z"/><path class="st0" d="M128.9 22.3c4.6 1.9 4.3 3.1 6.6 6.1 1.4 1.8 4.7 3.4 3.7 5.9 3.6-2.5 7.3-13.6-10.3-12zm11.1 8.2c0-1.7-1.9-5.2-5.5-6.6 5 1 6.6 4.3 5.5 6.6zm-107.6 18c-.6-.1-1.3.4-1.5.9-.2.5-.1 1.1.3 1.5.2.3.5.5.8.6.3.1.7.2 1.1.2 2.3-.1 4.7-3.6 6.6-7.3-.7 3-2.4 8.4-6.5 8.6-.6 0-1.3-.1-1.8-.3-.5-.2-1-.6-1.3-1-.7-.7-.9-1.7-.6-2.7.5-1.3 2.1-2.3 3.7-2.1 1.6.3 2.6 1.7 1.6 3.1-.7 1-2.7 1.2-3.1-.1.2.3 1.2.5 1.5-.3.3-.5-.2-1-.8-1.1zm7.6 7.9c-1.6 5.6-3.3 5.5-6.9 8.7-2.2 2-3.6 6-7.3 5.5 4.4 3.6 20.3 5.3 14.2-14.2zm-8.7 14.4c2.3-.3 6.7-3.3 7.9-7.6-.3 5.7-4.5 8.3-7.9 7.6z"/><path class="st0" d="M38.4 49.7c-3.6 9-11.4 5.8-14.2 13.6-1.1 3-1.1 5.8.4 8.5.3-3.3 1.7-5.1 4.1-5.9 7.5-2.7 10.5-9.4 9.7-16.2zM25.3 66.6c2.6-6.9 5-4.6 9.6-9.3-2.7 5.3-6.5 4.4-9.6 9.3zm79.1-.3c-3.4 1.5-5.8 3.5-6.9 6.6 3-2.3 5.6-2.6 8.1-1.6 7.9 3.3 15.9.4 21-5.2-10.4 4.2-13.5-3.6-22.2.2zm-1.9 3.3c7.8-3.4 7.7.1 15.1-.2-6.6 2.1-8.7-1.3-15.1.2zM71.7 7.1c-1.2-2.9-3.1-5-6.1-6.1 2 2.6 2.2 4.7 1 6.7-3.8 6.2-1.5 12.9 3.7 17.4-3.4-8.6 4.5-10.6 1.4-18zm-4 10.6c-1.6-5.5 1.9-6.9.8-12.3 2.8 6.6-.6 6.2-.8 12.3z"/><path class="st0" d="M46 1.4c-4.4-1.3-9.9.2-13.8 3.2 1.5.9 3 2.3 4.6 4.2 2.6 3 5.7 2.9 9.8 2.6 5.5-.5 14.2 2.2 22 15.6C64.6 16.8 55.8 4.4 46 1.4zm-2.5 4.5c-1.7-.1-3.5-.2-5.8-1 1.8-.8 3.7-1 5.8-.6 3.1.5 6.1 2.3 8.6 4C48.4 6.2 46 6 43.5 5.9zM20.2 43c-1.2.3-2.5.5-3.8.7 4.6 2.8 8.9 5.5 10.6 10.2.4 1.1.6 2.2.7 3.3.1-.1.2-.1.4-.2.7-.4 1.4-.7 2.1-1.1-.2-1-.4-1.9-.7-2.9-1.6-4.5-5.2-7.4-9.3-10zm2.5 28c-.3-.8-.5-1.7-.6-2.6-1.4.9-3 1.4-4.6 1.8-3.3.7-6.7.4-9.1-.9C6 68 4.1 66.1 3.2 63.9c-.8-2-.8-4.3.4-6.6 1.1-2.3 3-3.5 4.9-3.9.4-.1.8-.1 1.1-.1.5 0 1 .1 1.4.2 2.6 1 1.2 6.1 3.6 9 1.4 1.7 5.1 3.1 8 .5-2.2.5-3.9-3.2-4.6-5.2-.2-.6-.4-1.1-.6-1.6-.2-.5-.4-1-.6-1.4-1.1-2.1-2.8-3.6-6.4-3.9h-1c-.5 0-1 .1-1.6.2-2.7.5-5.3 2.2-6.8 5.3-1.5 3-1.5 6-.4 8.6 1.1 2.8 3.5 5.2 6.4 6.8 2.9 1.5 7 1.9 10.9 1.1 1.8-.6 3.4-1.2 4.8-1.9z"/><path class="st0" d="M42.5 12.5c-7.5.2-10.7 2.7-16.4-4.8.2 5 2.8 9.1 7.3 12.6 4.8 3.8 9.1 3.1 14.3 2.7 7.1-.6 16.6.2 22.8 9.6-3.7-11.5-16.4-20.4-28-20.1zM32 14.6c9 4.8 16.8-.5 25.7 5.1-10.9-3.2-15.4 2.9-25.7-5.1z"/><path class="st0" d="M44.1 25.1c-3.1.9-6.1.2-9.3-2.8.9 3.8 3.3 6.5 7.1 8.6 9.7 5.5 18.1-6.5 28.4 3.4-5.8-9.2-16.4-12.2-26.2-9.2zm-3.9 1.7c7.4 2.6 12.5-2.2 19.9 1-8.6-1.2-11.2 3.9-19.9-1zm98 45.7c5-4.4 3.7-8.7.2-11.4-3.9-3-7.8-2.6-11.5-1.2 5.9-.6 7.2 1.7 7.9 3.3-2.1 4.7 3.4 6 3.4 9.3zm-11-18.6c-3.8-1.1-4-5.5-2-7.4.7-.6 1.5-1.1 2.4-1.4-.9-.4-1.7-1-2.5-1.6-1.7.9-3.2 2.3-4.2 4.1-1.9 3.5-1.1 8.2 3.5 10.3 1 .5 2 .6 2.9.6 1-.3 1.9-.5 2.9-.7 1.2-.5 2.1-1.4 2.6-2.3.5-1 1.1-3.6-2.1-5.6 1.5 2.2-1.5 4.5-3.5 4zm10.9-9.1c-.3 1.8.1 3.2 3.1 5.5l.5.4c-.5-2.2-1.6-4.2-3.6-5.9zm3.8 7.8l-1.7-.2c-.3 0-.7-.1-1-.2.1 1.7-.3 3.4-1.1 5.1-.3.6-.7 1.2-1 1.7.7.4 1.4.8 2.1 1.3l.1.1c.5-.6.9-1.3 1.3-2 .9-1.9 1.3-3.9 1.3-5.8zm-79.6-9.2c.5.2 1 .5 1.5.8-.4.2-.7.5-1 .7-.4.3-.7.6-1 .9-.2-.1-.5-.2-.7-.3-3.2-1.5-7.3-2.3-12.4-2.5-1.3 0-2.7-.1-4-.1.5-.8 1-1.6 1.6-2.3.8 0 1.7 0 2.5.1 5.6.1 10 1.1 13.5 2.7zm6.3 8.8c.8-.4 1.5-.9 2-1.6.3.6.6 1.2.8 1.8-.8.2-1.6.5-2.4.9-.1-.4-.2-.8-.4-1.1zM29.2 18.1c.6.6 1.2 1.1 1.8 1.7-.9.9-1.9 1.7-3.1 2.4-2.9 1.8-6.5 2.2-9.7.7-1.9-.9-3.4-2.3-4.2-3.9-.1-.2-.2-.4-.2-.5-.1-.3-.3-.7-.4-1-1.8-6.6 5.7-11.8 11.5-6.3-5.4 2.8-1.1 9.7 4.3 6.9zm11.1 22.4c-.3.5-.5 1-.8 1.5-.1.3-.2.5-.3.8-4.9 0-9.8-.2-14.4-1.1.5-.2.9-.3 1.4-.5 1-.4 2-.8 2.9-1.2 3.6.4 7.4.5 11.2.5zm44.3 32.2c1.4-.2 3.2-.1 5.3.2 3.4.5 5.2-1.1 7.5-3.4 3-3 5.8-4.5 9-5.5-8.5-.2-20.1-3.2-21.8 8.7zm7.6-4.8c-1.1.8-2.2 1.6-4.1 2.3.6-1.3 1.6-2.4 3.1-3.2 2.2-1.2 5.1-1.7 7.6-1.9-3.5.5-5 1.6-6.6 2.8z"/><path class="st0" d="M73.1 63.6c-4.8 3.8-6.5 7.5-14.6 5.8 28 13.2 19.9-13.5 40.1-6.6-8.5-6.2-18-5.1-25.5.8zm-5.6 6.3c8.7-1.2 10.8-8.4 19.9-9.1-9.1 3.2-8.5 9.5-19.9 9.1z"/><path class="st0" d="M114.4 64.3c-26.8-7.4-6.4-26.1-22.9-36.8-6.5-4.2-13.1-6-20.4-4.7 12.7 4.4 10.1 9 12.1 17.9 1.1 4.7 3 8.8 5.7 12.3-3.1-2.8-6-6.1-8.5-9.6h.1c-.2-.3-.4-.5-.6-.8-1-1.4-1.9-2.9-2.6-4.5-2.2-4.3-3.5-8.8-3.5-13.2-.8-.4-1.7-.7-2.5-1-.1 4.4.9 8.9 2.8 13.3-.2-.2-.4-.3-.6-.4-2.7-1.9-5.5-3.2-8-3.8-6-1.4-11.1-1.1-15.1.4-4.7 1.7-8 5-9.7 8.9-2.4 5.4-2.2 11.1 1.2 16.2 2.5 3.8 6.5 6.8 10.7 8.3.7.3 1.5.5 2.3.7 5 1.2 10 .2 13.7-3.1.6-.5 1-1.1 1.5-1.6-1.2.3-2.5.4-3.7.4-3 2.5-6.9 3.1-10.8 2.2-.6-.2-1.3-.4-2-.6-3.2-1.2-6.3-3.3-8.5-6 2.7 2.7 7 4.1 12.9 2.7-1.1-1-1.9-2.4-2.4-3.8-1-2.8-3.7-3.6-6.4-4.7-3.5-1.4-6.5-2.6-7.1-6.7.2-1 .6-2 1-2.9 1.5-3.3 4.3-6.2 8.3-7.6 3.5-1.3 8.1-1.6 13.5-.3 2.1.5 4.6 1.7 7.1 3.4 2.4 1.7 4.7 3.8 6.6 6.1 5 6.8 12.1 12.7 20.6 16.3 1.6.8 3.3 1.4 5.2 1.9 3 .7 6.4 1.1 10 1.1zm-61-4.3c-1.8 0-3.4-.5-4.9-1.4-2.3-1.4-3.7-3.6-4.6-5.9 2.3 4.4 5.6 4.6 9.5 7.3zm29.5-32.2c14.8 9.6 7.4 16.9 15.5 28.9-10.9-8.8-5.8-19.7-15.5-28.9z"/><path class="st0" d="M132.6 62.2c-.2.1-.3.1-.5.2-7.1 2.3-14.4-.6-17.7-5.9-2.6-7.2 2.7-15.3-5-22.1-4.3-3.8-9-5.9-14.7-5.8 5.3 2.8 7.3 6.2 7 10.1-.7 7.6 1.5 14.7 6.6 19.6 3.3 3.1 9.9 5.9 15.6 6.7 3 .6 6.2.5 9.1-.4.1-.5.2-.9.3-1.4-.1-.3-.3-.7-.7-1zM103 33.6c9.8 8.8 3.3 13.5 7.7 23.3-6.9-7.7-1.7-15.4-7.7-23.3zm34.8 6.7c1.1-7.4-4.1-15.6-12.7-18.3 6.9 4.6 5.9 9.7 4.9 14.2-.7 3.3-1.5 6 1 9.4 2.4 3.1 5.3 5.1 9.2 5.6-5.3-4.2-3.1-6.1-2.4-10.9zM133.4 30c3.7 6.1-.9 10.7 2.1 16.9-5.6-7.2-.4-9.6-2.1-16.9z"/><path class="st0" d="M128.2 38.4c3-6.1 1.9-12.6-5-16 7.9 7.3-3.3 10.3.3 16.9 1.4 2.6 3.3 4.4 6.2 5.2-2.1-2.2-2.5-4.2-1.5-6.1zm-1-10.5c2 5-2.1 7.9-.7 12.9-3.1-6 1.1-7.3.7-12.9zM61.6 54.3c-1.8-6.6 2-9.8 7-10.4 5.4-.7 8.7 1.7 11.2 4.8-5-3.6-7.6-2.2-9.3-1-.9 5.2-6.8 3.5-8.9 6.6zm7.1.5c-4.2 2.2-5.3 4.1-9.6 3.2 3.3 4.6 8.3 4.8 11.8 3.4 5-1.9 10.3-5.5 17.2-3.9-5.6-4.5-12.8-6.2-19.4-2.7zm-5.3 4c6.8.2 11.5-5.8 18.1-2.9-7.8-1.2-9.5 4.7-18.1 2.9zM244.2 68c-.8-2.7-1.7-3.1-.6-6.5-9.9 8.5-.9 12.1 2.6 11.5-2.1-.8-1.5-3.3-2-5zm-2.5-2.8c-.9 2.6.4 5.4 1.5 6.2-2-.5-3.3-3-1.5-6.2zm35.3-23c-2.7.8-4.6 1.5-5.4 4-.5 1.6-1 2.8-1.7 3.7 10.5 3 16.1-6.5 16-14.5-1.4 4.2-5.3 5.7-8.9 6.8zm0 5.1c-1.2.7-2.5 1.1-3.8 1 1.2-1 2.3-1.5 3.4-2 1.5-.7 4.1-1.7 5.7-4-1 1.8-3.5 4-5.3 5zm-1.1-43.9l.1.1c-1.9-1.5-4-2.7-6.2-3.2-2.8-.6-5.5-.4-7.9.3-2.6.8-4.9 2.3-6.5 4.1-.2.3-.4.5-.6.8-1.4 1.9-2.2 4.1-2.1 6.4.9 0 1.7-.2 2.6-.5.1-1.6.7-3.2 1.7-4.6.2-.2.3-.4.5-.6 1.3-1.5 3.2-2.7 5.4-3.3 2-.6 4.3-.8 6.5-.3 3 .7 5.8 2.8 7.9 5.5 3.7 4.7 5 11.2 3 16.8-.6 1.8-1.6 3.5-2.8 5.1l.6.3c.6.3 1.2.5 1.7.7 1.3-1.7 2.2-3.5 2.9-5.4.6-1.8 1-3.6 1.1-5.5.1 1.2.1 2.4 0 3.6-.3 2.9-1.1 5.3-2.3 7.4 1.5-.1 2.8-.8 3.8-1.9.5-1.6.9-3.3 1.1-5.2.6-6-1.2-11.4-4.9-15.6-.5-.5-.9-1-1.4-1.5 4.7 2.9 7.6-.4 7.1-3.1-.4-1.8-2.8-3.3-6.2-2.5 2.1 2.7-1.4 3.7-5.1 2.1z"/><path class="st0" d="M282.1 33.2c-5.3 2.9-14.4-11.1-26.4-6.2-5.8 2.3-9.1 5.2-8.6 11.6 2.4-5.4 9.9-1.5 14.8.4 11.6 4.5 24.3 3.7 24.2-10.2-3.9 16.6-26 1.9-33.7 4.8 8.5-10.1 24 6.8 29.7-.4zM168.3 28c.2 0 .5-.1.7-.2.7-.4 1-1.1 1-1.8-.1-1.2-1.6-1.7-2.8-1.4-1.3.3-2 1.8-1.8 3 .2 1.1 1 2 2 2.5.6.3 1.3.4 2 .4s1.5-.2 2.1-.5c4-2.1 4.4-10.4 4.3-15.4-.2-2.5.5-4.9 1.9-6.8.2-.3.4-.5.6-.8-1.8 1.6-3.4 3.5-5 5.7-4 5.4-9.9 10-17.4 9-2.1-.3-4-1-5.7-2.1-2.4-1.6-3.9-3.9-4.6-6.5-.6-2.5-.5-5.4 1-7.7 1.3-2.1 3.3-3.7 5.8-4.5 2.4-.8 5-.6 7.4.3 2.3.9 4.1 2.6 4.6 4.9.6 2.6-.5 5.2-3.3 6.4-.4.2-.8.3-1.2.4-.5.1-.9.3-1.4.4-1.1.3-4.5 1.4-4.2 2.9-2.6-1.2-2-4.2 0-5.6.8-.6 1.8-.8 2.8-1 2.7-.5 5.7-.1 5-3.1-.3-1.5-1.9-2.6-3.4-3.2-1.7-.7-3.6-.8-5.4-.2-1.9.6-3.4 1.9-4.4 3.5-1.1 1.8-1.2 4.1-.7 6.1.5 2.1 1.8 4 3.7 5.2 1.3.9 2.8 1.4 4.4 1.7 6.4.8 11.5-3.5 14.8-8 4.4-6 8.1-9.9 16.4-10.6 1.3-.1 2.7-.1 4 0h.3c5 0 10.3 1.7 14.4 5 5.6 4.5 8.5 9.9 9.3 15.6-.9-.1-1.7-.2-2.6-.3-.8-4.8-3.3-9.3-8-13.2-7.7-6.4-19.9-6.4-24.9.9-1.4 2-1.9 4.6-1.1 7.4 1.2 4.2 4.7 7.4 9.6 7.3 3.9 0 6.7-2.3 7.7-5.2 1.2-3.5-2.5-7.1-6.4-5.7-2 .7-2.7 4.3-.1 5.1-3.9.3-5.2-2-5.5-3.1-.7-2.4 1.1-5.9 4.9-6.6 7.3-1.4 11.6 5.3 9.8 10.9-1.2 3.9-5 7-10.3 7.1-5.8 0-10.2-3.5-11.9-8.3.9 5.2.7 11.3-3.9 13.8-1 .5-2.1.8-3.2.8s-2.1-.2-3.1-.7c-1.7-.8-2.9-2.3-3.2-4-.4-2.5 1.3-5.4 4-6.1 2.9-.8 5.6.9 5.3 3.8-.4 1.7-2.6 3.3-4.3 2.5z"/><path class="st0" d="M147.8 34.4c-1-2.5 2.3-4.1 3.7-5.9 2.3-3 1.9-4.2 6.6-6.1-17.7-1.7-13.9 9.4-10.3 12zm-.9-3.9c-1.1-2.3.6-5.6 5.5-6.6-3.6 1.4-5.5 4.9-5.5 6.6zm107.6 18c.6-.1 1.3.4 1.5.9.2.5.1 1.1-.3 1.5-.2.3-.5.5-.8.6-.3.1-.7.2-1.1.2-2.3-.1-4.7-3.6-6.6-7.3.7 3 2.4 8.4 6.5 8.6.6 0 1.3-.1 1.8-.3.5-.2 1-.6 1.3-1 .6-.8.8-1.7.5-2.7-.5-1.3-2.1-2.3-3.7-2.1-1.6.3-2.6 1.7-1.6 3.1.7 1 2.7 1.2 3.1-.1-.2.3-1.2.5-1.5-.3-.1-.5.3-1 .9-1.1zm-.6 16.6c-3.6-3.3-5.3-3.1-6.9-8.7-6.1 19.5 9.8 17.8 14.2 14.2-3.7.5-5.2-3.5-7.3-5.5zm-6.1-2c1.2 4.4 5.6 7.3 7.9 7.6-3.4.8-7.6-1.8-7.9-7.6z"/><path class="st0" d="M262.8 63.3c-2.9-7.7-10.6-4.6-14.2-13.6-.9 6.7 2.2 13.4 9.7 16.1 2.4.8 3.8 2.7 4.1 5.9 1.6-2.6 1.6-5.4.4-8.4zm-10.8-6c4.6 4.7 7 2.3 9.6 9.3-3-4.9-6.8-4-9.6-9.3zm-69.4 9c-8.7-3.8-11.8 4-22.2-.1 5.1 5.6 13.1 8.5 21 5.2 2.5-1 5.1-.7 8.1 1.6-1.1-3.2-3.5-5.2-6.9-6.7zm-13.2 3.1c7.4.3 7.2-3.2 15.1.2-6.5-1.5-8.5 1.9-15.1-.2z"/><path class="st0" d="M246.3 42.4c-1.7-3.9-5-7.2-9.7-8.9-4-1.5-9.1-1.8-15.1-.4-2.5.6-5.3 2-8 3.8-.2.1-.4.3-.6.4 2-4.4 3-8.9 2.8-13.3-.8.3-1.7.6-2.5 1 0 4.4-1.3 8.9-3.5 13.2-.8 1.5-1.7 3-2.6 4.5-.2.3-.4.5-.6.8h.1c-2.4 3.5-5.4 6.7-8.5 9.6 2.7-3.5 4.6-7.7 5.7-12.3 2-9-.6-13.5 12.1-17.9-7.3-1.3-13.9.5-20.4 4.7-16.5 10.6 3.9 29.3-22.9 36.8 3.7 0 7.1-.4 10.2-1.2 1.8-.5 3.6-1.1 5.2-1.9 8.5-3.6 15.6-9.5 20.6-16.3 1.8-2.3 4.2-4.4 6.6-6.1 2.4-1.7 4.9-2.9 7.1-3.4 5.4-1.3 9.9-1 13.5.3 4 1.5 6.8 4.3 8.3 7.6.4 1 .8 2 1 2.9-.6 4.1-3.6 5.3-7.1 6.7-2.7 1.1-5.4 1.9-6.4 4.7-.5 1.4-1.2 2.8-2.4 3.8 5.9 1.4 10.2 0 12.9-2.7-2.2 2.7-5.3 4.8-8.5 6-.7.3-1.3.5-2 .6-3.9 1-7.9.3-10.8-2.2-1.2.1-2.4 0-3.7-.4.4.6.9 1.1 1.5 1.6 3.7 3.4 8.8 4.4 13.7 3.1.8-.2 1.5-.4 2.3-.7 4.2-1.6 8.2-4.5 10.7-8.3 3.1-4.9 3.4-10.6 1-16.1zm-57.7 14.3c8.1-12 .7-19.3 15.5-28.9-9.7 9.2-4.6 20.1-15.5 28.9zm49.9 1.8c-1.5.9-3.1 1.4-4.9 1.4 3.9-2.7 7.2-2.9 9.5-7.3-.9 2.3-2.4 4.5-4.6 5.9z"/><path class="st0" d="M220.4 7.8c-1.2-2-1-4.1 1-6.7-3 1.1-4.8 3.2-6.1 6.1-3.1 7.3 4.7 9.4 1.4 18.1 5.2-4.6 7.5-11.3 3.7-17.5zm-1.1 9.9c-.2-6-3.6-5.7-.8-12.3-1.1 5.3 2.4 6.8.8 12.3z"/><path class="st0" d="M240.9 1.4c-9.8 2.9-18.6 15.4-22.7 25.5 7.8-13.5 16.5-16.1 22-15.6 4.1.4 7.2.4 9.8-2.6 1.7-1.9 3.2-3.3 4.6-4.2-3.7-2.9-9.2-4.4-13.7-3.1zm2.6 4.5c-2.5.1-4.9.3-8.6 2.5 2.5-1.8 5.5-3.5 8.6-4 2.1-.4 4-.2 5.8.6-2.4.7-4.1.8-5.8.9zM266.7 43c1.2.3 2.5.5 3.8.7-4.6 2.8-8.9 5.5-10.6 10.2-.4 1.1-.6 2.2-.7 3.3-.1-.1-.2-.1-.4-.2-.7-.4-1.4-.7-2.1-1.1.2-1 .4-1.9.7-2.9 1.7-4.5 5.3-7.4 9.3-10zm-2.5 28c.3-.8.5-1.7.6-2.6 1.4.9 3 1.4 4.6 1.8 3.3.7 6.7.4 9.1-.9 2.4-1.3 4.3-3.2 5.2-5.4.8-2 .8-4.3-.4-6.6-1.1-2.3-3-3.5-4.9-3.9-.4-.1-.8-.1-1.1-.1-.5 0-1 .1-1.4.2-2.6 1-1.2 6.1-3.6 9-1.4 1.7-5.1 3.1-8 .5 2.2.5 3.9-3.2 4.6-5.2.2-.6.4-1.1.6-1.6.2-.5.4-1 .6-1.4 1.1-2.1 2.8-3.6 6.4-3.9h1c.5 0 1 .1 1.6.2 2.7.5 5.3 2.2 6.8 5.3 1.5 3 1.5 6 .4 8.6-1.1 2.8-3.5 5.2-6.4 6.8-2.9 1.5-7 1.9-10.9 1.1-1.7-.6-3.3-1.2-4.8-1.9z"/><path class="st0" d="M244.5 12.5c-11.6-.4-24.3 8.6-28 20 6.1-9.4 15.7-10.2 22.8-9.6 5.2.4 9.5 1.1 14.3-2.7 4.5-3.5 7.1-7.5 7.3-12.6-5.7 7.7-8.9 5.2-16.4 4.9zm-15.3 7.2c8.9-5.6 16.7-.4 25.7-5.1-10.2 8-14.7 1.9-25.7 5.1z"/><path class="st0" d="M242.9 25.1c-9.8-2.9-20.4 0-26.2 9.2 10.3-9.9 18.7 2.1 28.4-3.4 3.8-2.2 6.3-4.9 7.1-8.6-3.2 3-6.2 3.7-9.3 2.8zm-16.1 2.7c7.4-3.2 12.6 1.6 19.9-1-8.6 4.9-11.2-.2-19.9 1zm-78 44.7c-5-4.4-3.7-8.7-.2-11.4 3.9-3 7.8-2.6 11.5-1.2-5.9-.6-7.2 1.7-7.9 3.3 2.1 4.7-3.4 6-3.4 9.3zm11-18.6c3.8-1.1 4-5.5 2-7.4-.7-.6-1.5-1.1-2.4-1.4.9-.4 1.8-1 2.5-1.6 1.7.9 3.2 2.3 4.2 4.1 1.9 3.5 1.1 8.2-3.5 10.3-1 .5-2 .6-2.9.6-1-.3-1.9-.5-2.9-.7-1.2-.5-2.1-1.4-2.6-2.3-.5-1-1.1-3.6 2.1-5.6-1.6 2.2 1.4 4.5 3.5 4zm-11-9.1c.3 1.8-.1 3.2-3.1 5.5l-.5.4c.5-2.2 1.7-4.2 3.6-5.9zm-3.7 7.8l1.7-.2c.3 0 .7-.1 1-.2-.1 1.7.3 3.4 1.1 5.1.3.6.7 1.2 1 1.7-.7.4-1.4.8-2.1 1.3l-.1.1c-.5-.6-.9-1.3-1.3-2-.9-1.9-1.4-3.9-1.3-5.8zm79.6-9.2c-.5.2-1 .5-1.5.8.4.2.7.5 1 .7.4.3.7.6 1 .9.2-.1.5-.2.7-.3 3.2-1.5 7.3-2.3 12.4-2.5 1.3 0 2.7-.1 4-.1-.5-.8-1-1.6-1.6-2.3-.8 0-1.7 0-2.5.1-5.6.1-10 1.1-13.5 2.7zm-6.3 8.8c-.8-.4-1.5-.9-2-1.6-.3.6-.6 1.2-.8 1.8.8.2 1.6.5 2.4.9 0-.4.2-.8.4-1.1zm39.4-34.1c-.6.6-1.2 1.1-1.8 1.7.9.9 1.9 1.7 3.1 2.4 2.9 1.8 6.5 2.2 9.7.7 1.9-.9 3.4-2.3 4.2-3.9.1-.2.2-.4.2-.5.1-.3.3-.7.4-1 1.8-6.6-5.7-11.8-11.5-6.3 5.3 2.8 1 9.7-4.3 6.9zm-11.1 22.4c.3.5.5 1 .8 1.5.1.3.2.5.3.8 4.9 0 9.8-.2 14.4-1.1-.5-.2-.9-.3-1.4-.5-1-.4-2-.8-2.9-1.2-3.6.4-7.4.5-11.2.5zM180.6 64c3.2 1 6 2.5 9 5.5 2.3 2.3 4.1 3.9 7.5 3.4 2.1-.3 3.9-.4 5.3-.2-1.7-11.9-13.3-8.9-21.8-8.7zm14.2 3.9c-1.6-1.2-3.1-2.3-6.7-2.8 2.6.2 5.4.6 7.6 1.9 1.5.8 2.5 1.9 3.1 3.2-1.8-.7-2.9-1.5-4-2.3z"/><path class="st0" d="M213.8 63.6c-7.5-5.9-17-6.9-25.5-.9 20.2-6.9 12.1 19.8 40.1 6.6-8 1.8-9.8-2-14.6-5.7zm-14.2-2.7c9.1.6 11.2 7.8 19.9 9.1-11.5.3-10.8-6-19.9-9.1zm-7.4-32.3c-5.7-.2-10.4 1.9-14.7 5.8-7.7 6.8-2.4 15-5 22.1-3.3 5.3-10.5 8.2-17.7 5.9-.2-.1-.3-.1-.5-.2-.3.3-.6.7-.8 1.1.2.5.3.9.3 1.4 2.8.9 6 .9 9.1.4 5.7-.8 12.3-3.6 15.6-6.7 5.1-4.8 7.3-12 6.6-19.6-.3-4 1.7-7.4 7.1-10.2zm-15.9 28.3c4.5-9.9-2.1-14.5 7.7-23.3-6 7.9-.8 15.6-7.7 23.3zM161.8 22c-8.6 2.7-13.8 10.9-12.7 18.3.7 4.8 2.9 6.6-2.6 10.9 3.9-.5 6.8-2.5 9.2-5.6 2.6-3.3 1.8-6.1 1-9.4-.8-4.5-1.8-9.5 5.1-14.2zm-10.3 24.9c3-6.1-1.6-10.7 2.1-16.9-1.7 7.3 3.4 9.7-2.1 16.9z"/><path class="st0" d="M163.8 22.4c-6.8 3.3-8 9.9-5 16 .9 1.9.6 3.9-1.5 6.2 2.9-.8 4.8-2.6 6.2-5.2 3.5-6.7-7.6-9.7.3-17zm-3.4 18.4c1.5-4.9-2.6-7.9-.7-12.9-.3 5.6 3.9 6.9.7 12.9zm64.9 13.5c1.8-6.6-2-9.8-7-10.4-5.4-.7-8.7 1.7-11.2 4.8 5-3.6 7.6-2.2 9.3-1 1 5.2 6.9 3.5 8.9 6.6zm-7.1.5c-6.6-3.4-13.7-1.7-19.4 2.7 7-1.6 12.2 2 17.2 3.9 3.5 1.3 8.5 1.1 11.8-3.4-4.3.8-5.3-1-9.6-3.2zm-12.8 1.1c6.7-2.9 11.4 3.2 18.1 2.9-8.5 1.8-10.3-4.1-18.1-2.9z"/></svg>